<?xml version="1.0" encoding="UTF-8"?>
<svg width="256px" height="256px" viewBox="0 0 256 256" version="1.1" xmlns="http://www.w3.org/2000/svg" xmlns:xlink="http://www.w3.org/1999/xlink">
    <!-- Generator: Sketch 49.2 (51160) - http://www.bohemiancoding.com/sketch -->
    <title>LiveJournal Importer </title>
    <desc>Created with Sketch.</desc>
    <defs>
        <linearGradient x1="50%" y1="-2.48949813e-15%" x2="50%" y2="100%" id="linearGradient-1">
            <stop stop-color="#99D9ED" offset="0%"></stop>
            <stop stop-color="#33B3DB" offset="100%"></stop>
        </linearGradient>
        <rect id="path-2" x="0" y="0" width="160" height="160" rx="26"></rect>
        <linearGradient x1="50%" y1="0%" x2="50%" y2="100%" id="linearGradient-4">
            <stop stop-color="#FBFBFC" offset="0%"></stop>
            <stop stop-color="#F3F4F5" offset="100%"></stop>
        </linearGradient>
        <path d="M72.4713872,111 L92.0026372,111 C95.2497075,111 97.8620122,113.612305 97.8620122,116.859375 L97.8620122,157.875 L119.273145,157.875 C123.618848,157.875 125.7917,163.124023 122.715528,166.200195 L85.5817387,203.358398 C83.750684,205.189453 69.2243168,111 72.4713872,111 Z" id="path-5"></path>
        <filter x="-2.9%" y="-1.6%" width="105.8%" height="103.2%" filterUnits="objectBoundingBox" id="filter-6">
            <feMorphology radius="0.5" operator="dilate" in="SourceAlpha" result="shadowSpreadOuter1"></feMorphology>
            <feOffset dx="0" dy="0" in="shadowSpreadOuter1" result="shadowOffsetOuter1"></feOffset>
            <feColorMatrix values="0 0 0 0 0.11372549   0 0 0 0 0.11372549   0 0 0 0 0.105882353  0 0 0 0.1 0" type="matrix" in="shadowOffsetOuter1"></feColorMatrix>
        </filter>
        <path d="M52.734375,0 L72.265625,0 C75.5126953,0 78.125,2.61230469 78.125,5.859375 L78.125,46.875 L99.5361328,46.875 C103.881836,46.875 106.054687,52.1240234 102.978516,55.2001953 L65.8447266,92.3583984 C64.0136719,94.1894531 61.0107422,94.1894531 59.1796875,92.3583984 L21.9970703,55.2001953 C18.9208984,52.1240234 21.09375,46.875 25.4394531,46.875 L46.875,46.875 L46.875,5.859375 C46.875,2.61230469 49.4873047,0 52.734375,0 Z M125,91.796875 L125,119.140625 C125,122.387695 122.387695,125 119.140625,125 L5.859375,125 C2.61230469,125 0,122.387695 0,119.140625 L0,91.796875 C0,88.5498047 2.61230469,85.9375 5.859375,85.9375 L41.6748047,85.9375 L53.6376953,97.9003906 C58.5449219,102.807617 66.4550781,102.807617 71.3623047,97.9003906 L83.3251953,85.9375 L119.140625,85.9375 C122.387695,85.9375 125,88.5498047 125,91.796875 Z" id="path-7"></path>
        <filter x="-26.4%" y="-26.4%" width="152.8%" height="152.8%" filterUnits="objectBoundingBox" id="filter-8">
            <feMorphology radius="1" operator="dilate" in="SourceAlpha" result="shadowSpreadOuter1"></feMorphology>
            <feOffset dx="0" dy="0" in="shadowSpreadOuter1" result="shadowOffsetOuter1"></feOffset>
            <feGaussianBlur stdDeviation="10" in="shadowOffsetOuter1" result="shadowBlurOuter1"></feGaussianBlur>
            <feColorMatrix values="0 0 0 0 0   0 0 0 0 0.403921569   0 0 0 0 0.6  0 0 0 0.4 0" type="matrix" in="shadowBlurOuter1"></feColorMatrix>
        </filter>
    </defs>
    <g id="LiveJournal-Importer-" stroke="none" stroke-width="1" fill="none" fill-rule="evenodd">
        <rect id="Rectangle" fill="#C3E6FC" x="0" y="0" width="256" height="256"></rect>
        <rect id="Rectangle" fill="url(#linearGradient-1)" x="0" y="0" width="256" height="256"></rect>
        <g id="if_livejournal_2022315" transform="translate(76.000000, 20.000000)">
            <mask id="mask-3" fill="white">
                <use xlink:href="#path-2"></use>
            </mask>
            <use id="Mask" fill="#4A4A4A" xlink:href="#path-2"></use>
            <g mask="url(#mask-3)">
                <g transform="translate(-73.636364, -72.727273)">
                    <rect id="Rectangle-4" fill="#FFFFFF" fill-rule="evenodd" x="73.6363636" y="77.2727273" width="160" height="144.545455"></rect>
                    <path d="M103.47151,302.575869 C103.418209,299.074403 103.364028,296.722847 103.046119,284.113924 C102.909887,278.710595 102.714495,273.850133 102.611913,273.312904 C102.432022,272.370807 102.144146,272.617212 94.5015765,280.254911 L86.5777516,288.173731 L86.5777516,254.215053 L86.5777516,220.256402 L52.6646315,220.256402 L18.7515168,220.256402 L26.5487815,212.210693 C32.1365241,206.444914 34.1981418,204.111175 33.8240896,203.975099 C33.3169161,203.79059 25.1902061,203.682754 9.76583025,203.655861 C3.84574852,203.645536 2.22860754,203.548998 2.22860754,203.205903 C2.22860754,202.965653 8.89777932,196.130197 17.0489893,188.016001 C25.2001979,179.901801 36.5180752,168.591671 42.1998309,162.882371 L52.530288,152.501828 L27.1742334,127.142951 L1.81818182,101.78408 L10.4074965,101.54361 C15.1316201,101.411352 21.5882605,101.299838 24.7555878,101.295806 C27.9229151,101.291768 31.3761839,101.18782 32.4295171,101.064808 L34.3446695,100.841143 L26.5480958,92.7954339 L18.7515168,84.749725 L52.6646315,84.749725 L86.5777516,84.749725 L86.5777516,50.791009 L86.5777516,16.8322958 L94.6559768,24.9056238 L102.734207,32.9789517 L102.952984,30.6620125 C103.073311,29.3876941 103.173219,25.2961703 103.174999,21.5697366 C103.176625,17.843303 103.278757,11.4656623 103.401605,7.39720138 L103.624972,0 L128.962827,25.3372965 C142.898652,39.2728114 154.421173,50.5700437 154.568438,50.4422555 C154.715706,50.31447 166.144374,38.8899779 179.965476,25.0544968 C193.786581,11.2190184 205.172204,-0.0234697565 205.266862,0.0711914141 C205.36152,0.165852856 205.479974,6.86317553 205.530091,14.9541326 C205.58021,23.0450873 205.703672,30.233478 205.80445,30.9283373 L205.987684,32.1917121 L214.033034,24.5714372 L222.078385,16.9511596 L222.078385,50.8504423 L222.078385,84.749725 L256.035466,84.749725 L289.992548,84.749725 L282.219527,92.5286213 C277.944347,96.8070116 274.552522,100.413552 274.682115,100.54315 C274.811708,100.672751 276.329125,100.824614 278.05413,100.88063 C283.69624,101.063832 299.714014,101.512164 305.071682,101.636841 L307.272727,101.68806 L281.951887,127.01171 C268.02543,140.939721 256.631046,152.487047 256.631046,152.672439 C256.631046,152.857834 267.943045,164.322783 281.768825,178.150104 C295.594578,191.977424 306.826551,203.370726 306.728719,203.468545 C306.630915,203.566367 300.311274,203.652775 292.685081,203.660572 C285.058889,203.668377 277.699524,203.769283 276.330914,203.884835 L273.842553,204.094927 L281.917659,212.175665 L289.992792,220.256402 L256.035575,220.256402 L222.078385,220.256402 L222.078385,254.155674 L222.078385,288.054973 L214.033034,280.435351 L205.987684,272.81573 L205.797913,274.39964 C205.693537,275.270758 205.570234,282.45871 205.523901,290.372815 C205.477568,298.286947 205.366132,304.835659 205.276263,304.925527 C205.186391,305.015423 193.724644,293.700236 179.80571,279.780664 L154.49856,254.47238 L129.006946,279.963463 L103.515331,305.454545 L103.47151,302.575869 Z M164.599013,177.279037 C166.928949,171.997878 172.796232,165.970235 178.294742,163.208986 C179.272886,162.717782 180.068435,162.127897 180.062627,161.898132 C180.04363,161.146707 177.120088,147.743072 176.934761,147.557739 C176.711632,147.334598 173.36259,149.008905 170.322666,150.863368 C164.315519,154.527943 157.99562,160.617279 154.004368,166.586338 C151.703529,170.027324 148.999717,175.066264 149.295472,175.362035 C149.439671,175.506241 162.871925,178.495179 163.663232,178.559141 C163.860269,178.575077 164.28137,177.999022 164.599013,177.279037 Z" id="path3346" fill="#00AEE8" fill-rule="nonzero"></path>
                    <path d="M103.867177,295.635516 C103.797991,293.772968 103.631301,287.905955 103.496751,282.597679 C103.362203,277.28943 103.175613,272.814763 103.082104,272.654001 C102.988595,272.493213 99.3493435,275.920789 94.9948742,280.270808 L87.0776596,288.179932 L53.2037529,282.597679 L27.9648804,267.138579 L0,244.695328 L19.2598553,220.286975 L26.9994206,212.299688 C31.2561801,207.906681 34.784678,204.188479 34.8405222,204.037021 C34.9280826,203.799549 28.0231203,203.69568 7.38398323,203.623996 C4.82209831,203.615082 2.72601064,203.51036 2.72601064,203.391243 C2.72601064,203.27213 14.0835015,191.824887 27.9648804,177.952934 L16.8948623,157.068509 L27.7664691,127.300993 L2.32918742,101.870787 L9.72628394,101.64749 C13.7946869,101.524681 20.4008993,101.41047 24.4067558,101.393698 C28.4126122,101.376928 32.40175,101.262258 33.2715084,101.138882 L34.8528829,100.914567 L27.053907,92.8717448 L19.2549283,84.8289229 L27.053907,39.3395882 L53.2037529,27.597896 L76.4141735,22.3886382 L87.0776596,16.9358654 L95.1582766,25.0084419 L103.238894,33.0810212 L103.463869,30.5934424 C103.587609,29.2252755 103.703298,24.4484963 103.72096,19.9783806 C103.738602,15.5082648 103.85028,9.22101322 103.969096,6.00671014 L104.185123,0.162522842 L129.591406,25.5634705 L159.110078,25.5634705 L180.490342,25.4822092 L205.982996,0 L206.053689,12.1903824 C206.092568,18.8950954 206.080085,25.8284752 206.025943,27.597896 C205.854462,33.20182 205.362119,33.3704788 214.537123,24.6822454 L222.582317,17.0638732 L261.433158,30.5934424 L282.794434,49.9908733 L282.794434,70.0323995 L290.498497,84.8289229 L282.794434,92.5358007 C278.557204,96.7745866 275.090371,100.40869 275.090371,100.611588 C275.090371,100.855483 276.611438,101.005131 279.578963,101.053194 C282.047695,101.093173 285.896868,101.188842 288.132694,101.265782 C290.368521,101.342722 295.540273,101.487077 299.625495,101.586566 C303.710716,101.68606 307.134133,101.848401 307.233106,101.947329 C307.332051,102.046254 304.324661,113.478631 290.498497,127.300993 C276.672307,141.123352 288.132694,152.541012 288.132694,152.727273 C288.132694,152.913533 268.416767,164.343745 282.204366,178.125656 C295.991965,191.907568 307.272727,203.286767 307.272727,203.412762 C307.272727,203.538757 300.832028,203.66554 292.960048,203.694499 C281.097835,203.738132 277.39956,203.803022 274.415504,204.019891 C274.323794,204.026555 277.904993,207.689376 282.373747,212.159492 L290.498741,220.286975 L288.132694,254.169504 L271.994527,280.429781 L250.239549,288.052033 L222.582317,288.052033 L214.536728,280.429781 L206.491139,272.807529 L206.27922,274.231492 C206.162664,275.014683 206.046494,282.197373 206.021065,290.193056 C205.995617,298.188738 205.894159,304.811309 205.795558,304.909869 C205.696959,305.008428 194.227734,293.704453 180.308387,279.789877 L154.800957,282.597679 L129.508114,279.97261 L104.015742,305.454545 L104.004359,302.238257 C103.998096,300.469283 103.936363,297.498065 103.867177,295.635516 Z M164.31987,206.271412 C181.629517,203.140185 196.314888,191.9404 203.787157,176.171706 C216.212072,149.951479 205.6238,118.467676 179.913049,105.182993 C170.088406,100.106624 158.880913,98.1017775 148.224136,99.5143367 C144.005161,100.073564 138.269774,101.525756 135.368861,102.769275 L133.692717,103.487774 L155.616178,125.405642 L177.539639,147.323508 L174.907927,148.617079 C164.961736,153.505947 155.923148,162.604447 150.735338,172.949907 C150.148449,174.120278 149.60398,175.147476 149.525412,175.23257 C149.446838,175.317668 139.571551,165.580545 127.580319,153.594517 L105.778086,131.801747 L105.281924,132.782444 C104.519575,134.289285 103.081182,138.845912 102.299838,142.229272 C101.192264,147.025276 101.012308,156.540944 101.927856,161.898833 C104.972836,179.718424 116.513054,194.801434 132.777947,202.219743 C137.655185,204.444218 142.764144,205.806022 150.256706,206.878738 C152.321027,207.174291 161.526303,206.776755 164.31987,206.271412 Z M174.082165,180.713051 C169.113233,179.662493 164.949189,178.704076 164.828728,178.583231 C164.155541,177.907883 168.340773,171.63361 171.489177,168.598244 C175.009792,165.204036 180.395552,161.827506 180.748262,162.793387 C180.835007,163.030923 181.804236,167.606493 182.902109,172.961318 L184.898244,182.697366 L184.007412,182.660261 C183.51746,182.639834 179.051096,181.76361 174.082165,180.713051 Z M107.217161,128.475325 C112.283534,118.433067 121.126202,109.682726 131.496265,104.449737 L133.5925,103.391926 L127.663551,97.465019 L121.734604,91.5381088 L119.904476,92.4548022 C109.373534,97.7296471 100.456078,106.552626 95.3168306,116.781963 L93.7941241,119.812815 L99.6635165,125.687382 C102.891685,128.918395 105.561492,131.561951 105.596428,131.561951 C105.631361,131.561951 106.36069,130.172969 107.217161,128.475325 Z" id="path3344" fill="#1C4762" fill-rule="nonzero"></path>
                </g>
            </g>
        </g>
        <g id="Path">
            <use fill="black" fill-opacity="1" filter="url(#filter-6)" xlink:href="#path-5"></use>
            <use fill="url(#linearGradient-4)" fill-rule="evenodd" xlink:href="#path-5"></use>
        </g>
        <g id="download" transform="translate(20.000000, 111.000000)" fill-rule="nonzero">
            <g>
                <use fill="black" fill-opacity="1" filter="url(#filter-8)" xlink:href="#path-7"></use>
                <use fill="url(#linearGradient-4)" fill-rule="evenodd" xlink:href="#path-7"></use>
            </g>
        </g>
    </g>
</svg>